<?xml version="1.0" standalone="no"?>
<!DOCTYPE svg PUBLIC "-//W3C//DTD SVG 20010904//EN"
 "http://www.w3.org/TR/2001/REC-SVG-20010904/DTD/svg10.dtd">
<svg version="1.0" xmlns="http://www.w3.org/2000/svg"
 width="256.000000pt" height="256.000000pt" viewBox="0 0 256.000000 256.000000"
 preserveAspectRatio="xMidYMid meet">
<metadata>
Created by potrace 1.11, written by Peter Selinger 2001-2013
</metadata>
<g transform="translate(0.000000,256.000000) scale(0.100000,-0.100000)"
fill="#000000" stroke="none">
<path d="M1145 2318 c-64 -8 -183 -37 -230 -58 -215 -92 -339 -183 -462 -341
-80 -101 -170 -282 -187 -376 -3 -15 -7 -38 -10 -49 -21 -96 -28 -237 -15
-334 47 -353 245 -643 552 -805 87 -46 216 -95 252 -95 12 0 25 -3 28 -7 7 -6
35 -10 130 -17 26 -2 50 -6 53 -9 3 -3 19 -1 35 3 17 5 31 5 35 -1 3 -5 10 -6
16 -3 6 4 25 8 42 10 48 4 107 15 133 25 13 5 23 7 23 4 0 -2 18 2 41 10 23 8
45 13 49 10 5 -3 10 -1 12 4 1 5 10 11 18 13 42 9 216 108 260 148 44 39 62
50 72 44 6 -4 8 -3 5 4 -4 5 18 36 48 67 31 31 68 74 82 96 14 21 30 36 36 32
6 -3 7 -1 3 5 -7 11 19 60 39 74 5 4 7 8 3 8 -4 0 4 22 17 49 14 27 25 54 25
61 0 6 5 8 11 4 7 -4 10 -1 7 7 -3 8 1 29 8 48 8 19 17 48 20 65 3 17 7 36 8
41 1 6 4 15 7 20 3 6 5 25 5 43 -1 17 2 32 5 32 3 0 5 15 4 33 -1 17 2 40 7
50 5 9 5 17 1 17 -4 0 -8 37 -9 83 0 45 -5 91 -9 101 -7 15 -5 17 6 11 11 -7
12 -6 3 6 -7 8 -15 30 -19 49 -27 140 -118 328 -211 439 -242 287 -580 422
-949 379z"/>
</g>
</svg>
